<svg xmlns="http://www.w3.org/2000/svg" xmlns:xlink="http://www.w3.org/1999/xlink" zoomAndPan="magnify" preserveAspectRatio="xMidYMid meet" version="1.0" viewBox="77.56 150.02 227.6 72.02"><defs><g/><clipPath id="754a6cd5f7"><path d="M 77.558594 150.023438 L 148.058594 150.023438 L 148.058594 222.023438 L 77.558594 222.023438 Z M 77.558594 150.023438 " clip-rule="nonzero"/></clipPath><clipPath id="66ff355d4c"><path d="M 77.558594 150.023438 L 104 150.023438 L 104 176 L 77.558594 176 Z M 77.558594 150.023438 " clip-rule="nonzero"/></clipPath><clipPath id="0de36c18cc"><path d="M 103 150.023438 L 140 150.023438 L 140 222.023438 L 103 222.023438 Z M 103 150.023438 " clip-rule="nonzero"/></clipPath><clipPath id="77f6e47880"><path d="M 139 160 L 148.058594 160 L 148.058594 170 L 139 170 Z M 139 160 " clip-rule="nonzero"/></clipPath></defs><g clip-path="url(#754a6cd5f7)"><path fill="#2564e9" d="M 103.097656 175.472656 L 103.097656 150.023438 L 77.5625 150.023438 Z M 148.234375 169.59375 L 139.039062 160.539062 L 126.257812 173.238281 L 103.097656 150.023438 L 103.097656 222.046875 L 139.039062 186.019531 L 139.039062 169.59375 Z M 148.234375 169.59375 " fill-opacity="1" fill-rule="nonzero"/></g><g clip-path="url(#66ff355d4c)"><path fill="#39a9ad" d="M 77.5625 150.023438 L 103.097656 175.472656 L 103.097656 150.023438 L 77.5625 150.023438 " fill-opacity="1" fill-rule="nonzero"/></g><g clip-path="url(#0de36c18cc)"><path fill="#2564e9" d="M 103.097656 222.046875 L 103.097656 150.023438 L 139.039062 186.019531 L 103.097656 222.046875 " fill-opacity="1" fill-rule="nonzero"/></g><path fill="#39a9ad" d="M 139.039062 160.539062 L 139.039062 186.019531 L 126.257812 173.238281 Z M 139.039062 160.539062 " fill-opacity="1" fill-rule="nonzero"/><g clip-path="url(#77f6e47880)"><path fill="#2564e9" d="M 139.039062 160.539062 L 139.039062 169.59375 L 148.234375 169.59375 Z M 139.039062 160.539062 " fill-opacity="1" fill-rule="nonzero"/></g><g fill="#ffffff" fill-opacity="1"><g transform="translate(158.346162, 185.54958)"><g><path d="M 4.625 3.484375 L 4.625 -19.1875 L 12.796875 -19.1875 L 12.796875 -16.6875 L 7.625 -16.6875 L 7.625 0.984375 L 12.796875 0.984375 L 12.796875 3.484375 Z M 4.625 3.484375 "/></g></g></g><g fill="#ffffff" fill-opacity="1"><g transform="translate(173.488201, 185.54958)"><g><path d="M 7.578125 0.296875 C 6.566406 0.296875 5.65625 0.144531 4.84375 -0.15625 C 4.039062 -0.46875 3.351562 -0.921875 2.78125 -1.515625 C 2.21875 -2.109375 1.785156 -2.820312 1.484375 -3.65625 C 1.179688 -4.5 1.03125 -5.453125 1.03125 -6.515625 C 1.03125 -7.578125 1.179688 -8.523438 1.484375 -9.359375 C 1.785156 -10.203125 2.21875 -10.914062 2.78125 -11.5 C 3.351562 -12.09375 4.039062 -12.546875 4.84375 -12.859375 C 5.65625 -13.171875 6.566406 -13.328125 7.578125 -13.328125 C 8.585938 -13.328125 9.492188 -13.171875 10.296875 -12.859375 C 11.109375 -12.546875 11.796875 -12.09375 12.359375 -11.5 C 12.921875 -10.914062 13.351562 -10.203125 13.65625 -9.359375 C 13.957031 -8.523438 14.109375 -7.578125 14.109375 -6.515625 C 14.109375 -5.453125 13.957031 -4.5 13.65625 -3.65625 C 13.351562 -2.820312 12.921875 -2.109375 12.359375 -1.515625 C 11.796875 -0.921875 11.109375 -0.46875 10.296875 -0.15625 C 9.492188 0.144531 8.585938 0.296875 7.578125 0.296875 Z M 7.578125 -2.46875 C 8.421875 -2.46875 9.078125 -2.726562 9.546875 -3.25 C 10.015625 -3.78125 10.25 -4.523438 10.25 -5.484375 L 10.25 -7.546875 C 10.25 -8.503906 10.015625 -9.242188 9.546875 -9.765625 C 9.078125 -10.285156 8.421875 -10.546875 7.578125 -10.546875 C 6.734375 -10.546875 6.078125 -10.285156 5.609375 -9.765625 C 5.140625 -9.242188 4.90625 -8.503906 4.90625 -7.546875 L 4.90625 -5.484375 C 4.90625 -4.523438 5.140625 -3.78125 5.609375 -3.25 C 6.078125 -2.726562 6.734375 -2.46875 7.578125 -2.46875 Z M 7.578125 -2.46875 "/></g></g></g><g fill="#ffffff" fill-opacity="1"><g transform="translate(188.63024, 185.54958)"><g><path d="M 1.484375 -13.03125 L 5.234375 -13.03125 L 5.234375 -10.65625 L 5.40625 -10.65625 C 5.726562 -11.425781 6.191406 -12.0625 6.796875 -12.5625 C 7.398438 -13.070312 8.222656 -13.328125 9.265625 -13.328125 C 9.992188 -13.328125 10.65625 -13.191406 11.25 -12.921875 C 11.84375 -12.660156 12.351562 -12.25 12.78125 -11.6875 C 13.21875 -11.132812 13.554688 -10.425781 13.796875 -9.5625 C 14.046875 -8.707031 14.171875 -7.691406 14.171875 -6.515625 C 14.171875 -5.335938 14.046875 -4.316406 13.796875 -3.453125 C 13.554688 -2.597656 13.21875 -1.890625 12.78125 -1.328125 C 12.351562 -0.773438 11.84375 -0.363281 11.25 -0.09375 C 10.65625 0.164062 9.992188 0.296875 9.265625 0.296875 C 8.222656 0.296875 7.398438 0.0507812 6.796875 -0.4375 C 6.191406 -0.9375 5.726562 -1.582031 5.40625 -2.375 L 5.234375 -2.375 L 5.234375 5.046875 L 1.484375 5.046875 Z M 7.65625 -2.59375 C 8.488281 -2.59375 9.132812 -2.847656 9.59375 -3.359375 C 10.050781 -3.878906 10.28125 -4.59375 10.28125 -5.5 L 10.28125 -7.53125 C 10.28125 -8.4375 10.050781 -9.144531 9.59375 -9.65625 C 9.132812 -10.164062 8.488281 -10.421875 7.65625 -10.421875 C 7 -10.421875 6.429688 -10.257812 5.953125 -9.9375 C 5.472656 -9.625 5.234375 -9.125 5.234375 -8.4375 L 5.234375 -4.59375 C 5.234375 -3.90625 5.472656 -3.398438 5.953125 -3.078125 C 6.429688 -2.753906 7 -2.59375 7.65625 -2.59375 Z M 7.65625 -2.59375 "/></g></g></g><g fill="#ffffff" fill-opacity="1"><g transform="translate(203.772279, 185.54958)"><g><path d="M 8.578125 0 C 7.234375 0 6.234375 -0.351562 5.578125 -1.0625 C 4.921875 -1.769531 4.59375 -2.671875 4.59375 -3.765625 L 4.59375 -10.125 L 1.0625 -10.125 L 1.0625 -13.03125 L 3.359375 -13.03125 C 3.910156 -13.03125 4.304688 -13.140625 4.546875 -13.359375 C 4.785156 -13.578125 4.90625 -13.976562 4.90625 -14.5625 L 4.90625 -17.625 L 8.328125 -17.625 L 8.328125 -13.03125 L 13.40625 -13.03125 L 13.40625 -10.125 L 8.328125 -10.125 L 8.328125 -2.90625 L 13.40625 -2.90625 L 13.40625 0 Z M 8.578125 0 "/></g></g></g><g fill="#ffffff" fill-opacity="1"><g transform="translate(218.914318, 185.54958)"><g><path d="M 0.75 0 L 0.75 -13.03125 L 3.765625 -13.03125 L 3.765625 -11.109375 L 3.9375 -11.109375 C 4.132812 -11.710938 4.421875 -12.234375 4.796875 -12.671875 C 5.179688 -13.109375 5.71875 -13.328125 6.40625 -13.328125 C 7.675781 -13.328125 8.453125 -12.585938 8.734375 -11.109375 L 8.890625 -11.109375 C 8.992188 -11.410156 9.117188 -11.695312 9.265625 -11.96875 C 9.421875 -12.238281 9.609375 -12.472656 9.828125 -12.671875 C 10.046875 -12.878906 10.304688 -13.039062 10.609375 -13.15625 C 10.910156 -13.269531 11.265625 -13.328125 11.671875 -13.328125 C 13.484375 -13.328125 14.390625 -11.988281 14.390625 -9.3125 L 14.390625 0 L 11.390625 0 L 11.390625 -8.9375 C 11.390625 -9.539062 11.28125 -9.960938 11.0625 -10.203125 C 10.851562 -10.453125 10.582031 -10.578125 10.25 -10.578125 C 9.925781 -10.578125 9.648438 -10.472656 9.421875 -10.265625 C 9.203125 -10.054688 9.09375 -9.734375 9.09375 -9.296875 L 9.09375 0 L 6.0625 0 L 6.0625 -8.9375 C 6.0625 -9.539062 5.960938 -9.960938 5.765625 -10.203125 C 5.578125 -10.453125 5.3125 -10.578125 4.96875 -10.578125 C 4.632812 -10.578125 4.347656 -10.472656 4.109375 -10.265625 C 3.878906 -10.054688 3.765625 -9.734375 3.765625 -9.296875 L 3.765625 0 Z M 0.75 0 "/></g></g></g><g fill="#ffffff" fill-opacity="1"><g transform="translate(234.056357, 185.54958)"><g><path d="M 12.296875 0 C 11.523438 0 10.898438 -0.195312 10.421875 -0.59375 C 9.953125 -0.988281 9.675781 -1.554688 9.59375 -2.296875 L 9.46875 -2.296875 C 9.226562 -1.441406 8.757812 -0.796875 8.0625 -0.359375 C 7.363281 0.078125 6.507812 0.296875 5.5 0.296875 C 4.238281 0.296875 3.222656 -0.0390625 2.453125 -0.71875 C 1.691406 -1.40625 1.3125 -2.359375 1.3125 -3.578125 C 1.3125 -4.941406 1.804688 -5.953125 2.796875 -6.609375 C 3.796875 -7.265625 5.253906 -7.59375 7.171875 -7.59375 L 9.265625 -7.59375 L 9.265625 -8.25 C 9.265625 -9.03125 9.082031 -9.617188 8.71875 -10.015625 C 8.363281 -10.410156 7.753906 -10.609375 6.890625 -10.609375 C 6.097656 -10.609375 5.457031 -10.457031 4.96875 -10.15625 C 4.476562 -9.851562 4.0625 -9.457031 3.71875 -8.96875 L 1.671875 -10.78125 C 2.109375 -11.519531 2.789062 -12.128906 3.71875 -12.609375 C 4.65625 -13.085938 5.859375 -13.328125 7.328125 -13.328125 C 9.109375 -13.328125 10.5 -12.914062 11.5 -12.09375 C 12.5 -11.28125 13 -10.050781 13 -8.40625 L 13 -2.703125 L 14.4375 -2.703125 L 14.4375 0 Z M 6.921875 -2.140625 C 7.578125 -2.140625 8.128906 -2.300781 8.578125 -2.625 C 9.035156 -2.945312 9.265625 -3.410156 9.265625 -4.015625 L 9.265625 -5.578125 L 7.265625 -5.578125 C 5.734375 -5.578125 4.96875 -5.066406 4.96875 -4.046875 L 4.96875 -3.53125 C 4.96875 -3.082031 5.144531 -2.738281 5.5 -2.5 C 5.851562 -2.257812 6.328125 -2.140625 6.921875 -2.140625 Z M 6.921875 -2.140625 "/></g></g></g><g fill="#ffffff" fill-opacity="1"><g transform="translate(249.198396, 185.54958)"><g><path d="M 8.578125 0 C 7.234375 0 6.234375 -0.351562 5.578125 -1.0625 C 4.921875 -1.769531 4.59375 -2.671875 4.59375 -3.765625 L 4.59375 -10.125 L 1.0625 -10.125 L 1.0625 -13.03125 L 3.359375 -13.03125 C 3.910156 -13.03125 4.304688 -13.140625 4.546875 -13.359375 C 4.785156 -13.578125 4.90625 -13.976562 4.90625 -14.5625 L 4.90625 -17.625 L 8.328125 -17.625 L 8.328125 -13.03125 L 13.40625 -13.03125 L 13.40625 -10.125 L 8.328125 -10.125 L 8.328125 -2.90625 L 13.40625 -2.90625 L 13.40625 0 Z M 8.578125 0 "/></g></g></g><g fill="#ffffff" fill-opacity="1"><g transform="translate(264.340435, 185.54958)"><g><path d="M 8.390625 -14.703125 C 7.546875 -14.703125 6.957031 -14.875 6.625 -15.21875 C 6.300781 -15.5625 6.140625 -15.976562 6.140625 -16.46875 L 6.140625 -17.1875 C 6.140625 -17.695312 6.300781 -18.117188 6.625 -18.453125 C 6.957031 -18.796875 7.546875 -18.96875 8.390625 -18.96875 C 9.222656 -18.96875 9.800781 -18.796875 10.125 -18.453125 C 10.457031 -18.117188 10.625 -17.695312 10.625 -17.1875 L 10.625 -16.46875 C 10.625 -15.976562 10.457031 -15.5625 10.125 -15.21875 C 9.800781 -14.875 9.222656 -14.703125 8.390625 -14.703125 Z M 2.375 -2.90625 L 6.515625 -2.90625 L 6.515625 -10.125 L 2.375 -10.125 L 2.375 -13.03125 L 10.25 -13.03125 L 10.25 -2.90625 L 14.09375 -2.90625 L 14.09375 0 L 2.375 0 Z M 2.375 -2.90625 "/></g></g></g><g fill="#ffffff" fill-opacity="1"><g transform="translate(279.482474, 185.54958)"><g><path d="M 8.109375 0.296875 C 7.078125 0.296875 6.148438 0.144531 5.328125 -0.15625 C 4.515625 -0.46875 3.828125 -0.921875 3.265625 -1.515625 C 2.703125 -2.109375 2.269531 -2.820312 1.96875 -3.65625 C 1.664062 -4.5 1.515625 -5.453125 1.515625 -6.515625 C 1.515625 -7.578125 1.664062 -8.523438 1.96875 -9.359375 C 2.269531 -10.203125 2.703125 -10.914062 3.265625 -11.5 C 3.828125 -12.09375 4.515625 -12.546875 5.328125 -12.859375 C 6.148438 -13.171875 7.066406 -13.328125 8.078125 -13.328125 C 9.503906 -13.328125 10.648438 -13.035156 11.515625 -12.453125 C 12.390625 -11.878906 13.054688 -11.113281 13.515625 -10.15625 L 10.625 -8.578125 C 10.394531 -9.085938 10.085938 -9.507812 9.703125 -9.84375 C 9.328125 -10.1875 8.785156 -10.359375 8.078125 -10.359375 C 7.222656 -10.359375 6.5625 -10.109375 6.09375 -9.609375 C 5.632812 -9.109375 5.40625 -8.429688 5.40625 -7.578125 L 5.40625 -5.453125 C 5.40625 -4.597656 5.632812 -3.921875 6.09375 -3.421875 C 6.5625 -2.921875 7.238281 -2.671875 8.125 -2.671875 C 8.851562 -2.671875 9.421875 -2.835938 9.828125 -3.171875 C 10.242188 -3.515625 10.59375 -3.957031 10.875 -4.5 L 13.703125 -2.875 C 13.234375 -1.914062 12.546875 -1.144531 11.640625 -0.5625 C 10.742188 0.0078125 9.566406 0.296875 8.109375 0.296875 Z M 8.109375 0.296875 "/></g></g></g><g fill="#ffffff" fill-opacity="1"><g transform="translate(294.624513, 185.54958)"><g><path d="M 10.53125 -19.1875 L 10.53125 3.484375 L 2.34375 3.484375 L 2.34375 0.984375 L 7.53125 0.984375 L 7.53125 -16.6875 L 2.34375 -16.6875 L 2.34375 -19.1875 Z M 10.53125 -19.1875 "/></g></g></g><g fill="#ffffff" fill-opacity="1"><g transform="translate(162.496664, 206.137311)"><g><path d="M 0.546875 0 L 1.28125 -8.375 L 2.15625 -8.375 L 1.71875 -3.65625 L 1.46875 -0.984375 L 1.5625 -0.984375 L 3.515625 -6.1875 L 4.640625 -6.1875 L 4.890625 -0.984375 L 4.984375 -0.984375 L 5.609375 -3.578125 L 6.75 -8.375 L 7.640625 -8.375 L 5.59375 0 L 4.140625 0 L 3.953125 -5.046875 L 3.859375 -5.046875 L 2 0 Z M 0.546875 0 "/></g></g></g><g fill="#ffffff" fill-opacity="1"><g transform="translate(172.096679, 206.137311)"><g><path d="M 0.5625 0 L 1.96875 -8.375 L 7.109375 -8.375 L 6.953125 -7.515625 L 2.8125 -7.515625 L 2.328125 -4.6875 L 6.34375 -4.6875 L 6.203125 -3.8125 L 2.1875 -3.8125 L 1.6875 -0.859375 L 5.875 -0.859375 L 5.71875 0 Z M 0.5625 0 "/></g></g></g><g fill="#ffffff" fill-opacity="1"><g transform="translate(181.696695, 206.137311)"><g><path d="M 1.953125 -8.375 L 4.65625 -8.375 C 5.3125 -8.375 5.8125 -8.195312 6.15625 -7.84375 C 6.5 -7.5 6.671875 -7.03125 6.671875 -6.4375 C 6.671875 -5.882812 6.519531 -5.4375 6.21875 -5.09375 C 5.925781 -4.75 5.550781 -4.515625 5.09375 -4.390625 L 5.078125 -4.34375 C 5.265625 -4.289062 5.4375 -4.21875 5.59375 -4.125 C 5.75 -4.039062 5.882812 -3.929688 6 -3.796875 C 6.125 -3.660156 6.21875 -3.5 6.28125 -3.3125 C 6.34375 -3.125 6.375 -2.90625 6.375 -2.65625 C 6.375 -2.3125 6.304688 -1.976562 6.171875 -1.65625 C 6.046875 -1.332031 5.867188 -1.046875 5.640625 -0.796875 C 5.410156 -0.554688 5.132812 -0.363281 4.8125 -0.21875 C 4.488281 -0.0703125 4.132812 0 3.75 0 L 0.546875 0 Z M 3.546875 -0.859375 C 4.023438 -0.859375 4.410156 -0.960938 4.703125 -1.171875 C 4.992188 -1.378906 5.175781 -1.703125 5.25 -2.140625 L 5.3125 -2.5 C 5.332031 -2.570312 5.34375 -2.640625 5.34375 -2.703125 C 5.351562 -2.773438 5.359375 -2.851562 5.359375 -2.9375 C 5.359375 -3.238281 5.242188 -3.476562 5.015625 -3.65625 C 4.796875 -3.832031 4.476562 -3.921875 4.0625 -3.921875 L 2.1875 -3.921875 L 1.671875 -0.859375 Z M 4.03125 -4.734375 C 4.488281 -4.734375 4.84375 -4.832031 5.09375 -5.03125 C 5.34375 -5.226562 5.5 -5.507812 5.5625 -5.875 L 5.625 -6.234375 C 5.644531 -6.367188 5.65625 -6.492188 5.65625 -6.609375 C 5.65625 -6.929688 5.550781 -7.160156 5.34375 -7.296875 C 5.132812 -7.441406 4.847656 -7.515625 4.484375 -7.515625 L 2.765625 -7.515625 L 2.3125 -4.734375 Z M 4.03125 -4.734375 "/></g></g></g><g fill="#ffffff" fill-opacity="1"><g transform="translate(191.296709, 206.137311)"><g><path d="M 0.296875 1.65625 L 6.25 -9.125 L 7.125 -9.125 L 1.15625 1.65625 Z M 0.296875 1.65625 "/></g></g></g><g fill="#ffffff" fill-opacity="1"><g transform="translate(200.896725, 206.137311)"><g><path d="M 0.5625 0 L 1.96875 -8.375 L 7.109375 -8.375 L 6.953125 -7.515625 L 2.8125 -7.515625 L 2.328125 -4.6875 L 6.34375 -4.6875 L 6.203125 -3.8125 L 2.1875 -3.8125 L 1.6875 -0.859375 L 5.875 -0.859375 L 5.71875 0 Z M 0.5625 0 "/></g></g></g><g fill="#ffffff" fill-opacity="1"><g transform="translate(210.496741, 206.137311)"><g><path d="M 3.4375 0.140625 C 2.570312 0.140625 1.9375 -0.117188 1.53125 -0.640625 C 1.132812 -1.160156 0.9375 -1.90625 0.9375 -2.875 C 0.9375 -3.195312 0.957031 -3.5625 1 -3.96875 C 1.039062 -4.375 1.117188 -4.785156 1.234375 -5.203125 C 1.347656 -5.617188 1.492188 -6.023438 1.671875 -6.421875 C 1.859375 -6.816406 2.085938 -7.171875 2.359375 -7.484375 C 2.640625 -7.796875 2.972656 -8.046875 3.359375 -8.234375 C 3.742188 -8.421875 4.1875 -8.515625 4.6875 -8.515625 C 5.070312 -8.515625 5.398438 -8.457031 5.671875 -8.34375 C 5.941406 -8.238281 6.164062 -8.09375 6.34375 -7.90625 C 6.53125 -7.726562 6.671875 -7.523438 6.765625 -7.296875 C 6.859375 -7.078125 6.929688 -6.851562 6.984375 -6.625 L 6.09375 -6.34375 C 6.050781 -6.507812 5.992188 -6.671875 5.921875 -6.828125 C 5.859375 -6.992188 5.769531 -7.132812 5.65625 -7.25 C 5.550781 -7.375 5.410156 -7.472656 5.234375 -7.546875 C 5.066406 -7.617188 4.863281 -7.65625 4.625 -7.65625 C 3.945312 -7.65625 3.410156 -7.398438 3.015625 -6.890625 C 2.617188 -6.378906 2.347656 -5.695312 2.203125 -4.84375 L 2.015625 -3.6875 C 1.984375 -3.5 1.957031 -3.316406 1.9375 -3.140625 C 1.925781 -2.960938 1.921875 -2.789062 1.921875 -2.625 C 1.921875 -2.050781 2.046875 -1.585938 2.296875 -1.234375 C 2.554688 -0.890625 2.972656 -0.71875 3.546875 -0.71875 C 3.785156 -0.71875 4 -0.75 4.1875 -0.8125 C 4.375 -0.882812 4.546875 -0.988281 4.703125 -1.125 C 4.859375 -1.257812 5.003906 -1.429688 5.140625 -1.640625 C 5.285156 -1.847656 5.441406 -2.09375 5.609375 -2.375 L 6.390625 -1.984375 C 6.222656 -1.648438 6.046875 -1.351562 5.859375 -1.09375 C 5.679688 -0.832031 5.472656 -0.609375 5.234375 -0.421875 C 5.003906 -0.234375 4.742188 -0.09375 4.453125 0 C 4.160156 0.09375 3.820312 0.140625 3.4375 0.140625 Z M 3.4375 0.140625 "/></g></g></g><g fill="#ffffff" fill-opacity="1"><g transform="translate(220.096754, 206.137311)"><g><path d="M 3.125 0.140625 C 2.300781 0.140625 1.695312 -0.0976562 1.3125 -0.578125 C 0.9375 -1.066406 0.75 -1.773438 0.75 -2.703125 C 0.75 -3.054688 0.769531 -3.441406 0.8125 -3.859375 C 0.851562 -4.285156 0.925781 -4.710938 1.03125 -5.140625 C 1.144531 -5.578125 1.289062 -6 1.46875 -6.40625 C 1.65625 -6.8125 1.882812 -7.171875 2.15625 -7.484375 C 2.4375 -7.796875 2.765625 -8.046875 3.140625 -8.234375 C 3.515625 -8.421875 3.957031 -8.515625 4.46875 -8.515625 C 5.289062 -8.515625 5.890625 -8.269531 6.265625 -7.78125 C 6.648438 -7.300781 6.84375 -6.597656 6.84375 -5.671875 C 6.84375 -5.316406 6.816406 -4.925781 6.765625 -4.5 C 6.722656 -4.082031 6.648438 -3.65625 6.546875 -3.21875 C 6.441406 -2.789062 6.296875 -2.375 6.109375 -1.96875 C 5.921875 -1.570312 5.6875 -1.210938 5.40625 -0.890625 C 5.132812 -0.578125 4.804688 -0.328125 4.421875 -0.140625 C 4.046875 0.046875 3.613281 0.140625 3.125 0.140625 Z M 3.1875 -0.71875 C 3.832031 -0.71875 4.351562 -0.960938 4.75 -1.453125 C 5.144531 -1.953125 5.414062 -2.632812 5.5625 -3.5 L 5.78125 -4.875 C 5.8125 -5.050781 5.832031 -5.222656 5.84375 -5.390625 C 5.863281 -5.566406 5.875 -5.722656 5.875 -5.859375 C 5.875 -6.429688 5.757812 -6.875 5.53125 -7.1875 C 5.300781 -7.5 4.921875 -7.65625 4.390625 -7.65625 C 3.742188 -7.65625 3.222656 -7.40625 2.828125 -6.90625 C 2.441406 -6.414062 2.175781 -5.738281 2.03125 -4.875 L 1.796875 -3.5 C 1.765625 -3.320312 1.742188 -3.144531 1.734375 -2.96875 C 1.722656 -2.800781 1.71875 -2.648438 1.71875 -2.515625 C 1.71875 -1.941406 1.832031 -1.5 2.0625 -1.1875 C 2.289062 -0.875 2.664062 -0.71875 3.1875 -0.71875 Z M 3.1875 -0.71875 "/></g></g></g><g fill="#ffffff" fill-opacity="1"><g transform="translate(229.696767, 206.137311)"><g><path d="M 5.65625 -4.203125 L 6.125 -6.890625 L 6.03125 -6.890625 L 3.5 -2.5625 L 2.4375 -6.890625 L 2.359375 -6.890625 L 1.90625 -4.203125 L 1.21875 0 L 0.3125 0 L 1.71875 -8.375 L 2.921875 -8.375 L 3.796875 -4.671875 L 3.875 -4.671875 L 6 -8.375 L 7.265625 -8.375 L 5.859375 0 L 4.953125 0 Z M 5.65625 -4.203125 "/></g></g></g><g fill="#ffffff" fill-opacity="1"><g transform="translate(239.29678, 206.137311)"><g><path d="M 5.65625 -4.203125 L 6.125 -6.890625 L 6.03125 -6.890625 L 3.5 -2.5625 L 2.4375 -6.890625 L 2.359375 -6.890625 L 1.90625 -4.203125 L 1.21875 0 L 0.3125 0 L 1.71875 -8.375 L 2.921875 -8.375 L 3.796875 -4.671875 L 3.875 -4.671875 L 6 -8.375 L 7.265625 -8.375 L 5.859375 0 L 4.953125 0 Z M 5.65625 -4.203125 "/></g></g></g><g fill="#ffffff" fill-opacity="1"><g transform="translate(248.896794, 206.137311)"><g><path d="M 0.5625 0 L 1.96875 -8.375 L 7.109375 -8.375 L 6.953125 -7.515625 L 2.8125 -7.515625 L 2.328125 -4.6875 L 6.34375 -4.6875 L 6.203125 -3.8125 L 2.1875 -3.8125 L 1.6875 -0.859375 L 5.875 -0.859375 L 5.71875 0 Z M 0.5625 0 "/></g></g></g><g fill="#ffffff" fill-opacity="1"><g transform="translate(258.496807, 206.137311)"><g><path d="M 1.546875 0 L 0.5625 0 L 1.96875 -8.375 L 4.953125 -8.375 C 5.660156 -8.375 6.179688 -8.191406 6.515625 -7.828125 C 6.847656 -7.460938 7.015625 -6.988281 7.015625 -6.40625 C 7.015625 -5.5625 6.789062 -4.898438 6.34375 -4.421875 C 5.90625 -3.941406 5.285156 -3.675781 4.484375 -3.625 L 6.015625 0 L 4.9375 0 L 3.515625 -3.59375 L 2.140625 -3.59375 Z M 4.359375 -4.421875 C 4.765625 -4.421875 5.101562 -4.519531 5.375 -4.71875 C 5.65625 -4.914062 5.828125 -5.210938 5.890625 -5.609375 L 5.96875 -6.046875 C 5.988281 -6.191406 6 -6.347656 6 -6.515625 C 6 -6.847656 5.894531 -7.097656 5.6875 -7.265625 C 5.488281 -7.429688 5.207031 -7.515625 4.84375 -7.515625 L 2.8125 -7.515625 L 2.296875 -4.421875 Z M 4.359375 -4.421875 "/></g></g></g><g fill="#ffffff" fill-opacity="1"><g transform="translate(268.09682, 206.137311)"><g><path d="M 3.4375 0.140625 C 2.570312 0.140625 1.9375 -0.117188 1.53125 -0.640625 C 1.132812 -1.160156 0.9375 -1.90625 0.9375 -2.875 C 0.9375 -3.195312 0.957031 -3.5625 1 -3.96875 C 1.039062 -4.375 1.117188 -4.785156 1.234375 -5.203125 C 1.347656 -5.617188 1.492188 -6.023438 1.671875 -6.421875 C 1.859375 -6.816406 2.085938 -7.171875 2.359375 -7.484375 C 2.640625 -7.796875 2.972656 -8.046875 3.359375 -8.234375 C 3.742188 -8.421875 4.1875 -8.515625 4.6875 -8.515625 C 5.070312 -8.515625 5.398438 -8.457031 5.671875 -8.34375 C 5.941406 -8.238281 6.164062 -8.09375 6.34375 -7.90625 C 6.53125 -7.726562 6.671875 -7.523438 6.765625 -7.296875 C 6.859375 -7.078125 6.929688 -6.851562 6.984375 -6.625 L 6.09375 -6.34375 C 6.050781 -6.507812 5.992188 -6.671875 5.921875 -6.828125 C 5.859375 -6.992188 5.769531 -7.132812 5.65625 -7.25 C 5.550781 -7.375 5.410156 -7.472656 5.234375 -7.546875 C 5.066406 -7.617188 4.863281 -7.65625 4.625 -7.65625 C 3.945312 -7.65625 3.410156 -7.398438 3.015625 -6.890625 C 2.617188 -6.378906 2.347656 -5.695312 2.203125 -4.84375 L 2.015625 -3.6875 C 1.984375 -3.5 1.957031 -3.316406 1.9375 -3.140625 C 1.925781 -2.960938 1.921875 -2.789062 1.921875 -2.625 C 1.921875 -2.050781 2.046875 -1.585938 2.296875 -1.234375 C 2.554688 -0.890625 2.972656 -0.71875 3.546875 -0.71875 C 3.785156 -0.71875 4 -0.75 4.1875 -0.8125 C 4.375 -0.882812 4.546875 -0.988281 4.703125 -1.125 C 4.859375 -1.257812 5.003906 -1.429688 5.140625 -1.640625 C 5.285156 -1.847656 5.441406 -2.09375 5.609375 -2.375 L 6.390625 -1.984375 C 6.222656 -1.648438 6.046875 -1.351562 5.859375 -1.09375 C 5.679688 -0.832031 5.472656 -0.609375 5.234375 -0.421875 C 5.003906 -0.234375 4.742188 -0.09375 4.453125 0 C 4.160156 0.09375 3.820312 0.140625 3.4375 0.140625 Z M 3.4375 0.140625 "/></g></g></g><g fill="#ffffff" fill-opacity="1"><g transform="translate(277.696833, 206.137311)"><g><path d="M 0.5625 0 L 1.96875 -8.375 L 7.109375 -8.375 L 6.953125 -7.515625 L 2.8125 -7.515625 L 2.328125 -4.6875 L 6.34375 -4.6875 L 6.203125 -3.8125 L 2.1875 -3.8125 L 1.6875 -0.859375 L 5.875 -0.859375 L 5.71875 0 Z M 0.5625 0 "/></g></g></g></svg>