<svg xmlns="http://www.w3.org/2000/svg" xmlns:xlink="http://www.w3.org/1999/xlink" zoomAndPan="magnify" preserveAspectRatio="xMidYMid meet" version="1.0" viewBox="152.16 151.48 70.67 72.02"><defs><clipPath id="1dfab4e754"><path d="M 152.160156 151.484375 L 222.660156 151.484375 L 222.660156 223.484375 L 152.160156 223.484375 Z M 152.160156 151.484375 " clip-rule="nonzero"/></clipPath><clipPath id="bfdad05fe8"><path d="M 152.160156 151.484375 L 178 151.484375 L 178 177 L 152.160156 177 Z M 152.160156 151.484375 " clip-rule="nonzero"/></clipPath><clipPath id="eae7816a78"><path d="M 177 151.484375 L 214 151.484375 L 214 223.484375 L 177 223.484375 Z M 177 151.484375 " clip-rule="nonzero"/></clipPath><clipPath id="efa511aea3"><path d="M 213 162 L 222.660156 162 L 222.660156 172 L 213 172 Z M 213 162 " clip-rule="nonzero"/></clipPath></defs><g clip-path="url(#1dfab4e754)"><path fill="#2564e9" d="M 177.699219 176.9375 L 177.699219 151.484375 L 152.164062 151.484375 Z M 222.832031 171.058594 L 213.640625 162.003906 L 200.859375 174.703125 L 177.699219 151.484375 L 177.699219 223.507812 L 213.640625 187.484375 L 213.640625 171.058594 Z M 222.832031 171.058594 " fill-opacity="1" fill-rule="nonzero"/></g><g clip-path="url(#bfdad05fe8)"><path fill="#39a9ad" d="M 152.164062 151.484375 L 177.699219 176.9375 L 177.699219 151.484375 L 152.164062 151.484375 " fill-opacity="1" fill-rule="nonzero"/></g><g clip-path="url(#eae7816a78)"><path fill="#2564e9" d="M 177.699219 223.507812 L 177.699219 151.484375 L 213.640625 187.484375 L 177.699219 223.507812 " fill-opacity="1" fill-rule="nonzero"/></g><path fill="#39a9ad" d="M 213.640625 162.003906 L 213.640625 187.484375 L 200.859375 174.703125 Z M 213.640625 162.003906 " fill-opacity="1" fill-rule="nonzero"/><g clip-path="url(#efa511aea3)"><path fill="#2564e9" d="M 213.640625 162.003906 L 213.640625 171.058594 L 222.832031 171.058594 Z M 213.640625 162.003906 " fill-opacity="1" fill-rule="nonzero"/></g></svg>